<svg width="72" height="72" viewBox="0 0 72 72" fill="none" xmlns="http://www.w3.org/2000/svg">
<circle cx="36" cy="36" r="36" fill="#EEEEEE"/>
<path d="M49.8008 47.4056C48.5691 44.7343 45.6509 43.7926 44.3457 43.6558L50.6162 34.8511C53.5859 39.9718 51.31 45.3544 49.8008 47.4056Z" fill="#252424" stroke="#EEEEEE" stroke-width="0.554814"/>
<path d="M20.501 27.2655C23.4774 27.4869 25.3779 29.8577 25.956 31.0153L32.2265 22.2107C26.3124 21.2245 21.9452 25.1696 20.501 27.2655Z" fill="#252424" stroke="#EEEEEE" stroke-width="0.554814"/>
<path fill-rule="evenodd" clip-rule="evenodd" d="M27.2136 32.2979C27.2281 32.2582 27.2479 32.2206 27.2725 32.1861L35.6005 20.4925C35.7374 20.3003 35.8992 20.126 36.0843 19.9777C40.0293 16.8185 44.7097 14.8056 49.5969 14.0308C50.8849 13.8266 52.0936 14.6575 52.3397 15.9162C53.2734 20.6925 52.9524 25.7022 51.2832 30.4259C51.2049 30.6476 51.0937 30.8566 50.9568 31.0488L42.6294 42.7416C42.6047 42.7762 42.5756 42.8074 42.5426 42.8345C42.3753 42.9713 42.1357 42.9793 41.9573 42.8566L27.3926 32.8447C27.2146 32.7223 27.1403 32.4988 27.2136 32.2979Z" fill="#252424"/>
<mask id="mask0_18_143" style="mask-type:luminance" maskUnits="userSpaceOnUse" x="27" y="14" width="26" height="29">
<path fill-rule="evenodd" clip-rule="evenodd" d="M27.2136 32.2979C27.2281 32.2582 27.2479 32.2206 27.2725 32.1861L35.6005 20.4925C35.7374 20.3003 35.8992 20.126 36.0843 19.9777C40.0293 16.8185 44.7097 14.8056 49.5969 14.0308C50.8849 13.8266 52.0936 14.6575 52.3397 15.9162C53.2734 20.6925 52.9524 25.7022 51.2832 30.4259C51.2049 30.6476 51.0937 30.8566 50.9568 31.0488L42.6294 42.7416C42.6047 42.7762 42.5756 42.8074 42.5426 42.8345C42.3753 42.9713 42.1357 42.9793 41.9573 42.8566L27.3926 32.8447C27.2146 32.7223 27.1403 32.4988 27.2136 32.2979Z" fill="white"/>
</mask>
<g mask="url(#mask0_18_143)">
<path d="M27.8694 32.5963L36.1975 20.9028L35.0038 20.0822L26.6757 31.7758L27.8694 32.5963ZM49.481 13.3242C44.4704 14.1186 39.6707 16.1824 35.6242 19.4229L36.5446 20.5324C40.3882 17.4544 44.9492 15.4925 49.7131 14.7373L49.481 13.3242ZM51.9715 30.6606C53.6836 25.8153 54.0125 20.678 53.0552 15.7812L51.6243 16.0512C52.5346 20.707 52.2214 25.5889 50.5951 30.1913L51.9715 30.6606ZM50.36 30.6385L42.0326 42.3313L43.2264 43.1519L51.5537 31.4591L50.36 30.6385ZM42.375 42.2702L27.8103 32.2582L26.975 33.431L41.5398 43.4429L42.375 42.2702ZM27.8103 32.2582C27.8968 32.3177 27.9389 32.4314 27.8993 32.5395L26.5281 32.056C26.3418 32.5661 26.5325 33.1268 26.975 33.431L27.8103 32.2582ZM42.0766 42.2844C42.1662 42.2111 42.2888 42.211 42.375 42.2702L41.5398 43.4429C41.9827 43.7474 42.5846 43.7313 43.0088 43.3844L42.0766 42.2844ZM42.0326 42.3313C42.0447 42.3144 42.0593 42.2986 42.0766 42.2844L43.0088 43.3844C43.0921 43.3163 43.1651 43.2379 43.2264 43.1519L42.0326 42.3313ZM50.5951 30.1913C50.5404 30.3462 50.4611 30.4966 50.36 30.6385L51.5537 31.4591C51.7265 31.2165 51.8696 30.9488 51.9715 30.6606L50.5951 30.1913ZM49.7131 14.7373C50.6121 14.5947 51.4526 15.1725 51.6243 16.0512L53.0552 15.7812C52.7348 14.1425 51.1578 13.0584 49.481 13.3242L49.7131 14.7373ZM36.1975 20.9028C36.2985 20.7608 36.4151 20.6361 36.5446 20.5324L35.6242 19.4229C35.3834 19.6157 35.1765 19.8395 35.0038 20.0822L36.1975 20.9028ZM26.6757 31.7758C26.6145 31.8618 26.5647 31.956 26.5281 32.056L27.8993 32.5395C27.8917 32.5604 27.8815 32.5794 27.8694 32.5963L26.6757 31.7758Z" fill="#EEEEEE"/>
</g>
<path d="M26.7848 34.0273L41.1814 43.9238L39.1295 46.8051C38.2802 47.9977 36.6077 48.2879 35.3939 47.4536L25.3928 40.5786C24.179 39.7442 23.8836 38.1012 24.7328 36.9086L26.7848 34.0273Z" fill="#252424" stroke="#EEEEEE" stroke-width="0.56657"/>
<path d="M23.4902 42.4705L23.4902 42.4705C22.9956 42.1306 22.3142 42.2489 21.9682 42.7347L18.6265 47.4269C18.2805 47.9127 18.4009 48.5822 18.8954 48.9222C19.39 49.2622 20.0714 49.1439 20.4175 48.658L23.7591 43.9659C24.1052 43.48 23.9848 42.8105 23.4902 42.4705Z" fill="#252424"/>
<path d="M23.4902 42.4705L23.4902 42.4705C23.9848 42.8105 24.1052 43.48 23.7591 43.9659L20.4175 48.658C20.0714 49.1439 19.39 49.2622 18.8954 48.9222L18.8954 48.9222C18.4009 48.5822 18.2805 47.9127 18.6265 47.4269L21.9682 42.7347C22.3142 42.2489 22.9956 42.1306 23.4902 42.4705Z" stroke="#EEEEEE" stroke-width="0.566697"/>
<path d="M34.2363 49.8578L34.2363 49.8578C33.7417 49.5178 33.0603 49.6361 32.7143 50.122L29.3726 54.8141C29.0266 55.3 29.147 55.9694 29.6415 56.3094C30.1361 56.6494 30.8175 56.5311 31.1636 56.0452L34.5052 51.3531C34.8513 50.8672 34.7309 50.1977 34.2363 49.8578Z" fill="#252424"/>
<path d="M34.2363 49.8578L34.2363 49.8578C34.7309 50.1977 34.8513 50.8672 34.5052 51.3531L31.1636 56.0452C30.8175 56.5311 30.1361 56.6494 29.6415 56.3094L29.6415 56.3094C29.147 55.9694 29.0266 55.3 29.3726 54.8141L32.7143 50.122C33.0603 49.6361 33.7417 49.5178 34.2363 49.8578Z" stroke="#EEEEEE" stroke-width="0.566697"/>
<path d="M29.2812 45.578L29.2812 45.578C28.7867 45.238 28.1052 45.3563 27.7592 45.8422L21.2848 54.9331C20.9387 55.419 21.0591 56.0885 21.5537 56.4285C22.0482 56.7684 22.7297 56.6501 23.0757 56.1643L29.5501 47.0733C29.8962 46.5874 29.7758 45.9179 29.2812 45.578Z" fill="#252424"/>
<path d="M29.2812 45.578L29.2812 45.578C29.7758 45.9179 29.8962 46.5874 29.5501 47.0733L23.0757 56.1643C22.7297 56.6501 22.0482 56.7684 21.5537 56.4285L21.5537 56.4285C21.0591 56.0885 20.9387 55.419 21.2848 54.9331L27.7592 45.8422C28.1052 45.3563 28.7867 45.238 29.2812 45.578Z" stroke="#EEEEEE" stroke-width="0.566697"/>
</svg>
