<svg width="72" height="72" viewBox="0 0 72 72" fill="none" xmlns="http://www.w3.org/2000/svg">
<path d="M36.0001 0H35.9999C16.1177 0 0 16.1177 0 35.9999V36.0001C0 55.8823 16.1177 72 35.9999 72H36.0001C55.8823 72 72 55.8823 72 36.0001V35.9999C72 16.1177 55.8823 0 36.0001 0Z" fill="#EEEEEE"/>
<path d="M38.2279 15.4053H33.6634C25.0564 15.4053 20.753 15.4053 18.0791 18.0791C15.4053 20.753 15.4053 25.0564 15.4053 33.6634V38.2279C15.4053 46.8348 15.4053 51.1384 18.0791 53.8121C20.753 56.486 25.0564 56.486 33.6634 56.486H36.7287C38.5944 56.486 39.5274 56.486 40.3661 56.1386C41.2051 55.791 41.8647 55.1315 43.1841 53.8121L53.8121 43.1841C55.1315 41.8647 55.791 41.2051 56.1386 40.3661C56.486 39.5274 56.486 38.5944 56.486 36.7287V33.6634C56.486 25.0564 56.486 20.753 53.8121 18.0791C51.1384 15.4053 46.8348 15.4053 38.2279 15.4053Z" fill="#3664E2"/>
<path d="M41.6478 55.348C41.2279 55.768 40.5098 55.4705 40.5098 54.8766V54.2038C40.5098 47.7487 40.5098 44.5211 42.5152 42.5157C44.3516 40.6792 49.1267 40.5245 54.8754 40.5115C55.4693 40.5101 55.7675 41.2283 55.3475 41.6483L41.6478 55.348Z" fill="#1A3C9A"/>
<rect x="24.5342" y="24.5342" width="22.8226" height="2.28226" rx="1.14113" fill="white"/>
</svg>
