<svg width="74" height="73" viewBox="0 0 74 73" fill="none" xmlns="http://www.w3.org/2000/svg">
<ellipse cx="37.3401" cy="37.3934" rx="35.5403" ry="35.6063" fill="#EEEEEE"/>
<rect x="21.4756" y="32.0474" width="30.3784" height="8.64213" rx="4.32106" fill="#2A125E"/>
<rect x="19.708" y="35.9219" width="30.3784" height="8.64213" rx="4.32106" transform="rotate(-40.6804 19.708 35.9219)" fill="#4C20AA"/>
<rect x="25.1416" y="50.0156" width="30.3784" height="8.64213" rx="4.32106" transform="rotate(-40.6804 25.1416 50.0156)" fill="#4C20AA"/>
<path fill-rule="evenodd" clip-rule="evenodd" d="M38.7204 66.6663C38.7204 65.904 39.3154 65.2778 40.0733 65.197C54.4731 63.6634 65.6898 51.4765 65.6898 36.6697C65.6898 34.8697 65.524 33.1083 65.2069 31.4002C65.0858 30.7477 65.3964 30.0846 65.9902 29.7884L70.5413 27.5176C71.3493 27.1145 72.3262 27.5457 72.5296 28.4255C73.1418 31.0747 73.4654 33.8344 73.4654 36.6697C73.4654 55.7217 58.8546 71.3612 40.2267 72.9945C39.4084 73.0662 38.7204 72.4085 38.7204 71.5871V66.6663ZM36.9998 7.97968C48.6484 7.97968 58.6756 14.9218 63.1698 24.8945C63.5187 25.6687 64.4373 26.0281 65.1972 25.649L69.5685 23.468C70.2429 23.1315 70.5465 22.3304 70.2356 21.6439C64.5104 9.00016 51.7823 0.204102 36.9998 0.204102C22.8502 0.204102 10.583 8.26303 4.53754 20.0413C4.19154 20.7154 4.46035 21.5347 5.12373 21.9008L9.40029 24.2612C10.1391 24.6689 11.0661 24.3547 11.4509 23.6037C16.2042 14.3278 25.8607 7.97968 36.9998 7.97968ZM8.37923 28.3326C8.9647 28.6557 9.24682 29.3386 9.09168 29.9891C8.58044 32.1326 8.30976 34.3696 8.30976 36.6697C8.30976 51.4394 19.4703 63.6024 33.8182 65.1853C34.5736 65.2687 35.1653 65.8939 35.1653 66.6539V71.5769C35.1653 72.4002 34.4746 73.0585 33.6547 72.9839C15.0832 71.295 0.53418 55.6814 0.53418 36.6697C0.53418 33.2113 1.01563 29.8653 1.91518 26.6951C2.16046 25.8307 3.14998 25.4464 3.93666 25.8806L8.37923 28.3326Z" fill="#4C20AA"/>
</svg>
